<svg xmlns="http://www.w3.org/2000/svg" viewBox="0 0 580 540">
    <defs>
        <pattern id="hex" x="0" y="0" width="51.19533842007698" height="88.67292725425631" patternUnits="userSpaceOnUse">
            <path d="M 25.59766921003849,0 L 25.59766921003849,14.778821209042718 L 0,29.557642418085436 L 0,59.11528483617087 L 25.59766921003849,73.89410604521359 L 25.59766921003849,88.67292725425631 M 25.59766921003849,14.778821209042718 L 51.19533842007698,29.557642418085436 L 51.19533842007698,59.11528483617087 L 25.59766921003849,73.89410604521359" fill="none" stroke="gray"></path>
        </pattern>
    </defs>
    <rect width="100%" height="100%" fill="url(#hex)"></rect>
    <g pcd="01" transform="translate(537.5510534108082, 44.336463627128154)">
        <polyline points="0,-29.557642418085436 25.59766921003849,-14.778821209042718 25.59766921003849,14.778821209042718 0,29.557642418085436 -25.59766921003849,14.778821209042718 -25.59766921003849,-14.778821209042718 0,-29.557642418085436" stroke="#cac" fill="#cac" opacity="0.5"></polyline>
        <text x="0" y="0" style="fill: black; font-size: 1.0em;text-anchor: middle; dominant-baseline: central">北海道</text>
    </g>
    <g pcd="02" transform="translate(486.3557149907313, 44.336463627128154)">
        <polyline points="0,-29.557642418085436 25.59766921003849,-14.778821209042718 25.59766921003849,14.778821209042718 0,29.557642418085436 -25.59766921003849,14.778821209042718 -25.59766921003849,-14.778821209042718 0,-29.557642418085436" stroke="#8fd" fill="#8fd" opacity="0.5"></polyline>
        <text x="0" y="0" style="fill: black; font-size: 1.0em;text-anchor: middle; dominant-baseline: central">青森</text>
    </g>
    <g pcd="03" transform="translate(511.9533842007698, 88.67292725425631)">
        <polyline points="0,-29.557642418085436 25.59766921003849,-14.778821209042718 25.59766921003849,14.778821209042718 0,29.557642418085436 -25.59766921003849,14.778821209042718 -25.59766921003849,-14.778821209042718 0,-29.557642418085436" stroke="#8fd" fill="#8fd" opacity="0.5"></polyline>
        <text x="0" y="0" style="fill: black; font-size: 1.0em;text-anchor: middle; dominant-baseline: central">岩手</text>
    </g>
    <g pcd="04" transform="translate(486.3557149907313, 133.00939088138446)">
        <polyline points="0,-29.557642418085436 25.59766921003849,-14.778821209042718 25.59766921003849,14.778821209042718 0,29.557642418085436 -25.59766921003849,14.778821209042718 -25.59766921003849,-14.778821209042718 0,-29.557642418085436" stroke="#8fd" fill="#8fd" opacity="0.5"></polyline>
        <text x="0" y="0" style="fill: black; font-size: 1.0em;text-anchor: middle; dominant-baseline: central">宮城</text>
    </g>
    <g pcd="05" transform="translate(460.7580457806928, 88.67292725425631)">
        <polyline points="0,-29.557642418085436 25.59766921003849,-14.778821209042718 25.59766921003849,14.778821209042718 0,29.557642418085436 -25.59766921003849,14.778821209042718 -25.59766921003849,-14.778821209042718 0,-29.557642418085436" stroke="#8fd" fill="#8fd" opacity="0.5"></polyline>
        <text x="0" y="0" style="fill: black; font-size: 1.0em;text-anchor: middle; dominant-baseline: central">秋田</text>
    </g>
    <g pcd="06" transform="translate(435.16037657065436, 133.00939088138446)">
        <polyline points="0,-29.557642418085436 25.59766921003849,-14.778821209042718 25.59766921003849,14.778821209042718 0,29.557642418085436 -25.59766921003849,14.778821209042718 -25.59766921003849,-14.778821209042718 0,-29.557642418085436" stroke="#8fd" fill="#8fd" opacity="0.5"></polyline>
        <text x="0" y="0" style="fill: black; font-size: 1.0em;text-anchor: middle; dominant-baseline: central">山形</text>
    </g>
    <g pcd="07" transform="translate(511.9533842007698, 177.34585450851262)">
        <polyline points="0,-29.557642418085436 25.59766921003849,-14.778821209042718 25.59766921003849,14.778821209042718 0,29.557642418085436 -25.59766921003849,14.778821209042718 -25.59766921003849,-14.778821209042718 0,-29.557642418085436" stroke="#8fd" fill="#8fd" opacity="0.5"></polyline>
        <text x="0" y="0" style="fill: black; font-size: 1.0em;text-anchor: middle; dominant-baseline: central">福島</text>
    </g>
    <g pcd="08" transform="translate(537.5510534108083, 221.68231813564077)">
        <polyline points="0,-29.557642418085436 25.59766921003849,-14.778821209042718 25.59766921003849,14.778821209042718 0,29.557642418085436 -25.59766921003849,14.778821209042718 -25.59766921003849,-14.778821209042718 0,-29.557642418085436" stroke="#e89" fill="#e89" opacity="0.5"></polyline>
        <text x="0" y="0" style="fill: black; font-size: 1.0em;text-anchor: middle; dominant-baseline: central">茨城</text>
    </g>
    <g pcd="09" transform="translate(460.75804578069284, 177.34585450851262)">
        <polyline points="0,-29.557642418085436 25.59766921003849,-14.778821209042718 25.59766921003849,14.778821209042718 0,29.557642418085436 -25.59766921003849,14.778821209042718 -25.59766921003849,-14.778821209042718 0,-29.557642418085436" stroke="#e89" fill="#e89" opacity="0.5"></polyline>
        <text x="0" y="0" style="fill: black; font-size: 1.0em;text-anchor: middle; dominant-baseline: central">栃木</text>
    </g>
    <g pcd="10" transform="translate(435.16037657065436, 221.68231813564077)">
        <polyline points="0,-29.557642418085436 25.59766921003849,-14.778821209042718 25.59766921003849,14.778821209042718 0,29.557642418085436 -25.59766921003849,14.778821209042718 -25.59766921003849,-14.778821209042718 0,-29.557642418085436" stroke="#e89" fill="#e89" opacity="0.5"></polyline>
        <text x="0" y="0" style="fill: black; font-size: 1.0em;text-anchor: middle; dominant-baseline: central">群馬</text>
    </g>
    <g pcd="11" transform="translate(486.3557149907313, 221.68231813564077)">
        <polyline points="0,-29.557642418085436 25.59766921003849,-14.778821209042718 25.59766921003849,14.778821209042718 0,29.557642418085436 -25.59766921003849,14.778821209042718 -25.59766921003849,-14.778821209042718 0,-29.557642418085436" stroke="#e89" fill="#e89" opacity="0.5"></polyline>
        <text x="0" y="0" style="fill: black; font-size: 1.0em;text-anchor: middle; dominant-baseline: central">埼玉</text>
    </g>
    <g pcd="12" transform="translate(511.9533842007698, 266.0187817627689)">
        <polyline points="0,-29.557642418085436 25.59766921003849,-14.778821209042718 25.59766921003849,14.778821209042718 0,29.557642418085436 -25.59766921003849,14.778821209042718 -25.59766921003849,-14.778821209042718 0,-29.557642418085436" stroke="#e89" fill="#e89" opacity="0.5"></polyline>
        <text x="0" y="0" style="fill: black; font-size: 1.0em;text-anchor: middle; dominant-baseline: central">千葉</text>
    </g>
    <g pcd="13" transform="translate(460.75804578069284, 266.0187817627689)">
        <polyline points="0,-29.557642418085436 25.59766921003849,-14.778821209042718 25.59766921003849,14.778821209042718 0,29.557642418085436 -25.59766921003849,14.778821209042718 -25.59766921003849,-14.778821209042718 0,-29.557642418085436" stroke="#e89" fill="#e89" opacity="0.5"></polyline>
        <text x="0" y="0" style="fill: black; font-size: 1.0em;text-anchor: middle; dominant-baseline: central">東京</text>
    </g>
    <g pcd="14" transform="translate(486.3557149907313, 310.35524538989705)">
        <polyline points="0,-29.557642418085436 25.59766921003849,-14.778821209042718 25.59766921003849,14.778821209042718 0,29.557642418085436 -25.59766921003849,14.778821209042718 -25.59766921003849,-14.778821209042718 0,-29.557642418085436" stroke="#e89" fill="#e89" opacity="0.5"></polyline>
        <text x="0" y="0" style="fill: black; font-size: 1.0em;text-anchor: middle; dominant-baseline: central">神奈川</text>
    </g>
    <g pcd="15" transform="translate(409.56270736061583, 177.34585450851262)">
        <polyline points="0,-29.557642418085436 25.59766921003849,-14.778821209042718 25.59766921003849,14.778821209042718 0,29.557642418085436 -25.59766921003849,14.778821209042718 -25.59766921003849,-14.778821209042718 0,-29.557642418085436" stroke="#89d" fill="#89d" opacity="0.5"></polyline>
        <text x="0" y="0" style="fill: black; font-size: 1.0em;text-anchor: middle; dominant-baseline: central">新潟</text>
    </g>
    <g pcd="16" transform="translate(383.9650381505773, 221.68231813564077)">
        <polyline points="0,-29.557642418085436 25.59766921003849,-14.778821209042718 25.59766921003849,14.778821209042718 0,29.557642418085436 -25.59766921003849,14.778821209042718 -25.59766921003849,-14.778821209042718 0,-29.557642418085436" stroke="#89d" fill="#89d" opacity="0.5"></polyline>
        <text x="0" y="0" style="fill: black; font-size: 1.0em;text-anchor: middle; dominant-baseline: central">富山</text>
    </g>
    <g pcd="17" transform="translate(358.3673689405388, 177.34585450851262)">
        <polyline points="0,-29.557642418085436 25.59766921003849,-14.778821209042718 25.59766921003849,14.778821209042718 0,29.557642418085436 -25.59766921003849,14.778821209042718 -25.59766921003849,-14.778821209042718 0,-29.557642418085436" stroke="#89d" fill="#89d" opacity="0.5"></polyline>
        <text x="0" y="0" style="fill: black; font-size: 1.0em;text-anchor: middle; dominant-baseline: central">石川</text>
    </g>
    <g pcd="18" transform="translate(332.76969973050035, 221.68231813564077)">
        <polyline points="0,-29.557642418085436 25.59766921003849,-14.778821209042718 25.59766921003849,14.778821209042718 0,29.557642418085436 -25.59766921003849,14.778821209042718 -25.59766921003849,-14.778821209042718 0,-29.557642418085436" stroke="#89d" fill="#89d" opacity="0.5"></polyline>
        <text x="0" y="0" style="fill: black; font-size: 1.0em;text-anchor: middle; dominant-baseline: central">福井</text>
    </g>
    <g pcd="19" transform="translate(409.56270736061583, 266.0187817627689)">
        <polyline points="0,-29.557642418085436 25.59766921003849,-14.778821209042718 25.59766921003849,14.778821209042718 0,29.557642418085436 -25.59766921003849,14.778821209042718 -25.59766921003849,-14.778821209042718 0,-29.557642418085436" stroke="#89d" fill="#89d" opacity="0.5"></polyline>
        <text x="0" y="0" style="fill: black; font-size: 1.0em;text-anchor: middle; dominant-baseline: central">山梨</text>
    </g>
    <g pcd="20" transform="translate(358.3673689405389, 266.0187817627689)">
        <polyline points="0,-29.557642418085436 25.59766921003849,-14.778821209042718 25.59766921003849,14.778821209042718 0,29.557642418085436 -25.59766921003849,14.778821209042718 -25.59766921003849,-14.778821209042718 0,-29.557642418085436" stroke="#89d" fill="#89d" opacity="0.5"></polyline>
        <text x="0" y="0" style="fill: black; font-size: 1.0em;text-anchor: middle; dominant-baseline: central">長野</text>
    </g>
    <g pcd="21" transform="translate(383.96503815057736, 310.35524538989705)">
        <polyline points="0,-29.557642418085436 25.59766921003849,-14.778821209042718 25.59766921003849,14.778821209042718 0,29.557642418085436 -25.59766921003849,14.778821209042718 -25.59766921003849,-14.778821209042718 0,-29.557642418085436" stroke="#89d" fill="#89d" opacity="0.5"></polyline>
        <text x="0" y="0" style="fill: black; font-size: 1.0em;text-anchor: middle; dominant-baseline: central">岐阜</text>
    </g>
    <g pcd="22" transform="translate(435.1603765706543, 310.35524538989705)">
        <polyline points="0,-29.557642418085436 25.59766921003849,-14.778821209042718 25.59766921003849,14.778821209042718 0,29.557642418085436 -25.59766921003849,14.778821209042718 -25.59766921003849,-14.778821209042718 0,-29.557642418085436" stroke="#89d" fill="#89d" opacity="0.5"></polyline>
        <text x="0" y="0" style="fill: black; font-size: 1.0em;text-anchor: middle; dominant-baseline: central">静岡</text>
    </g>
    <g pcd="23" transform="translate(409.56270736061583, 354.69170901702523)">
        <polyline points="0,-29.557642418085436 25.59766921003849,-14.778821209042718 25.59766921003849,14.778821209042718 0,29.557642418085436 -25.59766921003849,14.778821209042718 -25.59766921003849,-14.778821209042718 0,-29.557642418085436" stroke="#89d" fill="#89d" opacity="0.5"></polyline>
        <text x="0" y="0" style="fill: black; font-size: 1.0em;text-anchor: middle; dominant-baseline: central">愛知</text>
    </g>
    <g pcd="24" transform="translate(358.3673689405389, 354.69170901702523)">
        <polyline points="0,-29.557642418085436 25.59766921003849,-14.778821209042718 25.59766921003849,14.778821209042718 0,29.557642418085436 -25.59766921003849,14.778821209042718 -25.59766921003849,-14.778821209042718 0,-29.557642418085436" stroke="#ddb" fill="#ddb" opacity="0.5"></polyline>
        <text x="0" y="0" style="fill: black; font-size: 1.0em;text-anchor: middle; dominant-baseline: central">三重</text>
    </g>
    <g pcd="25" transform="translate(332.76969973050035, 310.35524538989705)">
        <polyline points="0,-29.557642418085436 25.59766921003849,-14.778821209042718 25.59766921003849,14.778821209042718 0,29.557642418085436 -25.59766921003849,14.778821209042718 -25.59766921003849,-14.778821209042718 0,-29.557642418085436" stroke="#ddb" fill="#ddb" opacity="0.5"></polyline>
        <text x="0" y="0" style="fill: black; font-size: 1.0em;text-anchor: middle; dominant-baseline: central">滋賀</text>
    </g>
    <g pcd="26" transform="translate(307.17203052046193, 266.0187817627689)">
        <polyline points="0,-29.557642418085436 25.59766921003849,-14.778821209042718 25.59766921003849,14.778821209042718 0,29.557642418085436 -25.59766921003849,14.778821209042718 -25.59766921003849,-14.778821209042718 0,-29.557642418085436" stroke="#ddb" fill="#ddb" opacity="0.5"></polyline>
        <text x="0" y="0" style="fill: black; font-size: 1.0em;text-anchor: middle; dominant-baseline: central">京都</text>
    </g>
    <g pcd="27" transform="translate(281.5743613104234, 310.35524538989705)">
        <polyline points="0,-29.557642418085436 25.59766921003849,-14.778821209042718 25.59766921003849,14.778821209042718 0,29.557642418085436 -25.59766921003849,14.778821209042718 -25.59766921003849,-14.778821209042718 0,-29.557642418085436" stroke="#ddb" fill="#ddb" opacity="0.5"></polyline>
        <text x="0" y="0" style="fill: black; font-size: 1.0em;text-anchor: middle; dominant-baseline: central">大阪</text>
    </g>
    <g pcd="28" transform="translate(255.9766921003849, 266.0187817627689)">
        <polyline points="0,-29.557642418085436 25.59766921003849,-14.778821209042718 25.59766921003849,14.778821209042718 0,29.557642418085436 -25.59766921003849,14.778821209042718 -25.59766921003849,-14.778821209042718 0,-29.557642418085436" stroke="#ddb" fill="#ddb" opacity="0.5"></polyline>
        <text x="0" y="0" style="fill: black; font-size: 1.0em;text-anchor: middle; dominant-baseline: central">兵庫</text>
    </g>
    <g pcd="29" transform="translate(307.17203052046193, 354.69170901702523)">
        <polyline points="0,-29.557642418085436 25.59766921003849,-14.778821209042718 25.59766921003849,14.778821209042718 0,29.557642418085436 -25.59766921003849,14.778821209042718 -25.59766921003849,-14.778821209042718 0,-29.557642418085436" stroke="#ddb" fill="#ddb" opacity="0.5"></polyline>
        <text x="0" y="0" style="fill: black; font-size: 1.0em;text-anchor: middle; dominant-baseline: central">奈良</text>
    </g>
    <g pcd="30" transform="translate(255.9766921003849, 354.69170901702523)">
        <polyline points="0,-29.557642418085436 25.59766921003849,-14.778821209042718 25.59766921003849,14.778821209042718 0,29.557642418085436 -25.59766921003849,14.778821209042718 -25.59766921003849,-14.778821209042718 0,-29.557642418085436" stroke="#ddb" fill="#ddb" opacity="0.5"></polyline>
        <text x="0" y="0" style="fill: black; font-size: 1.0em;text-anchor: middle; dominant-baseline: central">和歌山</text>
    </g>
    <g pcd="31" transform="translate(204.78135368030792, 266.0187817627689)">
        <polyline points="0,-29.557642418085436 25.59766921003849,-14.778821209042718 25.59766921003849,14.778821209042718 0,29.557642418085436 -25.59766921003849,14.778821209042718 -25.59766921003849,-14.778821209042718 0,-29.557642418085436" stroke="#9b9" fill="#9b9" opacity="0.5"></polyline>
        <text x="0" y="0" style="fill: black; font-size: 1.0em;text-anchor: middle; dominant-baseline: central">鳥取</text>
    </g>
    <g pcd="32" transform="translate(153.58601526023097, 266.0187817627689)">
        <polyline points="0,-29.557642418085436 25.59766921003849,-14.778821209042718 25.59766921003849,14.778821209042718 0,29.557642418085436 -25.59766921003849,14.778821209042718 -25.59766921003849,-14.778821209042718 0,-29.557642418085436" stroke="#9b9" fill="#9b9" opacity="0.5"></polyline>
        <text x="0" y="0" style="fill: black; font-size: 1.0em;text-anchor: middle; dominant-baseline: central">島根</text>
    </g>
    <g pcd="33" transform="translate(230.37902289034642, 310.35524538989705)">
        <polyline points="0,-29.557642418085436 25.59766921003849,-14.778821209042718 25.59766921003849,14.778821209042718 0,29.557642418085436 -25.59766921003849,14.778821209042718 -25.59766921003849,-14.778821209042718 0,-29.557642418085436" stroke="#9b9" fill="#9b9" opacity="0.5"></polyline>
        <text x="0" y="0" style="fill: black; font-size: 1.0em;text-anchor: middle; dominant-baseline: central">岡山</text>
    </g>
    <g pcd="34" transform="translate(179.18368447026944, 310.35524538989705)">
        <polyline points="0,-29.557642418085436 25.59766921003849,-14.778821209042718 25.59766921003849,14.778821209042718 0,29.557642418085436 -25.59766921003849,14.778821209042718 -25.59766921003849,-14.778821209042718 0,-29.557642418085436" stroke="#9b9" fill="#9b9" opacity="0.5"></polyline>
        <text x="0" y="0" style="fill: black; font-size: 1.0em;text-anchor: middle; dominant-baseline: central">広島</text>
    </g>
    <g pcd="35" transform="translate(127.98834605019245, 310.35524538989705)">
        <polyline points="0,-29.557642418085436 25.59766921003849,-14.778821209042718 25.59766921003849,14.778821209042718 0,29.557642418085436 -25.59766921003849,14.778821209042718 -25.59766921003849,-14.778821209042718 0,-29.557642418085436" stroke="#9b9" fill="#9b9" opacity="0.5"></polyline>
        <text x="0" y="0" style="fill: black; font-size: 1.0em;text-anchor: middle; dominant-baseline: central">山口</text>
    </g>
    <g pcd="36" transform="translate(230.3790228903464, 399.0281726441534)">
        <polyline points="0,-29.557642418085436 25.59766921003849,-14.778821209042718 25.59766921003849,14.778821209042718 0,29.557642418085436 -25.59766921003849,14.778821209042718 -25.59766921003849,-14.778821209042718 0,-29.557642418085436" stroke="#b9a" fill="#b9a" opacity="0.5"></polyline>
        <text x="0" y="0" style="fill: black; font-size: 1.0em;text-anchor: middle; dominant-baseline: central">徳島</text>
    </g>
    <g pcd="37" transform="translate(204.78135368030792, 354.69170901702523)">
        <polyline points="0,-29.557642418085436 25.59766921003849,-14.778821209042718 25.59766921003849,14.778821209042718 0,29.557642418085436 -25.59766921003849,14.778821209042718 -25.59766921003849,-14.778821209042718 0,-29.557642418085436" stroke="#b9a" fill="#b9a" opacity="0.5"></polyline>
        <text x="0" y="0" style="fill: black; font-size: 1.0em;text-anchor: middle; dominant-baseline: central">香川</text>
    </g>
    <g pcd="38" transform="translate(153.58601526023097, 354.69170901702523)">
        <polyline points="0,-29.557642418085436 25.59766921003849,-14.778821209042718 25.59766921003849,14.778821209042718 0,29.557642418085436 -25.59766921003849,14.778821209042718 -25.59766921003849,-14.778821209042718 0,-29.557642418085436" stroke="#b9a" fill="#b9a" opacity="0.5"></polyline>
        <text x="0" y="0" style="fill: black; font-size: 1.0em;text-anchor: middle; dominant-baseline: central">愛媛</text>
    </g>
    <g pcd="39" transform="translate(179.1836844702694, 399.0281726441534)">
        <polyline points="0,-29.557642418085436 25.59766921003849,-14.778821209042718 25.59766921003849,14.778821209042718 0,29.557642418085436 -25.59766921003849,14.778821209042718 -25.59766921003849,-14.778821209042718 0,-29.557642418085436" stroke="#b9a" fill="#b9a" opacity="0.5"></polyline>
        <text x="0" y="0" style="fill: black; font-size: 1.0em;text-anchor: middle; dominant-baseline: central">高知</text>
    </g>
    <g pcd="40" transform="translate(102.39067684015396, 354.69170901702523)">
        <polyline points="0,-29.557642418085436 25.59766921003849,-14.778821209042718 25.59766921003849,14.778821209042718 0,29.557642418085436 -25.59766921003849,14.778821209042718 -25.59766921003849,-14.778821209042718 0,-29.557642418085436" stroke="#cb9" fill="#cb9" opacity="0.5"></polyline>
        <text x="0" y="0" style="fill: black; font-size: 1.0em;text-anchor: middle; dominant-baseline: central">福岡</text>
    </g>
    <g pcd="41" transform="translate(51.195338420076965, 354.69170901702523)">
        <polyline points="0,-29.557642418085436 25.59766921003849,-14.778821209042718 25.59766921003849,14.778821209042718 0,29.557642418085436 -25.59766921003849,14.778821209042718 -25.59766921003849,-14.778821209042718 0,-29.557642418085436" stroke="#cb9" fill="#cb9" opacity="0.5"></polyline>
        <text x="0" y="0" style="fill: black; font-size: 1.0em;text-anchor: middle; dominant-baseline: central">佐賀</text>
    </g>
    <g pcd="42" transform="translate(25.597669210038482, 399.0281726441534)">
        <polyline points="0,-29.557642418085436 25.59766921003849,-14.778821209042718 25.59766921003849,14.778821209042718 0,29.557642418085436 -25.59766921003849,14.778821209042718 -25.59766921003849,-14.778821209042718 0,-29.557642418085436" stroke="#cb9" fill="#cb9" opacity="0.5"></polyline>
        <text x="0" y="0" style="fill: black; font-size: 1.0em;text-anchor: middle; dominant-baseline: central">長崎</text>
    </g>
    <g pcd="43" transform="translate(76.79300763011545, 399.0281726441534)">
        <polyline points="0,-29.557642418085436 25.59766921003849,-14.778821209042718 25.59766921003849,14.778821209042718 0,29.557642418085436 -25.59766921003849,14.778821209042718 -25.59766921003849,-14.778821209042718 0,-29.557642418085436" stroke="#cb9" fill="#cb9" opacity="0.5"></polyline>
        <text x="0" y="0" style="fill: black; font-size: 1.0em;text-anchor: middle; dominant-baseline: central">熊本</text>
    </g>
    <g pcd="44" transform="translate(127.98834605019245, 399.0281726441534)">
        <polyline points="0,-29.557642418085436 25.59766921003849,-14.778821209042718 25.59766921003849,14.778821209042718 0,29.557642418085436 -25.59766921003849,14.778821209042718 -25.59766921003849,-14.778821209042718 0,-29.557642418085436" stroke="#cb9" fill="#cb9" opacity="0.5"></polyline>
        <text x="0" y="0" style="fill: black; font-size: 1.0em;text-anchor: middle; dominant-baseline: central">大分</text>
    </g>
    <g pcd="45" transform="translate(102.39067684015393, 443.36463627128154)">
        <polyline points="0,-29.557642418085436 25.59766921003849,-14.778821209042718 25.59766921003849,14.778821209042718 0,29.557642418085436 -25.59766921003849,14.778821209042718 -25.59766921003849,-14.778821209042718 0,-29.557642418085436" stroke="#cb9" fill="#cb9" opacity="0.5"></polyline>
        <text x="0" y="0" style="fill: black; font-size: 1.0em;text-anchor: middle; dominant-baseline: central">宮崎</text>
    </g>
    <g pcd="46" transform="translate(51.195338420076965, 443.36463627128154)">
        <polyline points="0,-29.557642418085436 25.59766921003849,-14.778821209042718 25.59766921003849,14.778821209042718 0,29.557642418085436 -25.59766921003849,14.778821209042718 -25.59766921003849,-14.778821209042718 0,-29.557642418085436" stroke="#cb9" fill="#cb9" opacity="0.5"></polyline>
        <text x="0" y="0" style="fill: black; font-size: 1.0em;text-anchor: middle; dominant-baseline: central">鹿児島</text>
    </g>
    <g pcd="47" transform="translate(25.59766921003851, 487.70109989840967)">
        <polyline points="0,-29.557642418085436 25.59766921003849,-14.778821209042718 25.59766921003849,14.778821209042718 0,29.557642418085436 -25.59766921003849,14.778821209042718 -25.59766921003849,-14.778821209042718 0,-29.557642418085436" stroke="#8cc" fill="#8cc" opacity="0.5"></polyline>
        <text x="0" y="0" style="fill: black; font-size: 1.0em;text-anchor: middle; dominant-baseline: central">沖縄</text>
    </g>
</svg>